<svg width="23" height="13" viewBox="0 0 23 13" fill="none" xmlns="http://www.w3.org/2000/svg">
<path d="M22.2497 5.70985C22.0517 5.47637 17.3199 0 11.2711 0C5.22198 0 0.490441 5.47637 0.291987 5.71008C-0.0973672 6.16787 -0.0973672 6.83213 0.292216 7.29038C0.490441 7.52386 5.22198 13 11.2711 13C17.3199 13 22.0517 7.5234 22.2499 7.28993C22.6392 6.83213 22.6392 6.16787 22.2497 5.70985ZM13.1187 3.28971C13.5255 3.06768 14.0927 3.32245 14.3854 3.85852C14.6782 4.39483 14.5857 5.00965 14.179 5.23168C13.7724 5.45394 13.205 5.19895 12.912 4.66287C12.6195 4.12656 12.7117 3.51174 13.1187 3.28971ZM11.2711 11.0159C7.04561 11.0159 3.48968 7.77084 2.2589 6.5C3.09003 5.64163 4.98232 3.88393 7.42443 2.83283C6.94809 3.55752 6.66884 4.42344 6.66884 5.35551C6.66884 7.89719 8.72915 9.9575 11.2708 9.9575C13.8125 9.9575 15.873 7.89719 15.873 5.35551C15.873 4.42344 15.594 3.55752 15.1177 2.83283C17.5598 3.88416 19.4518 5.64163 20.283 6.5C19.0522 7.77153 15.4963 11.0159 11.2711 11.0159Z" fill="#0046FE"/>
</svg>
